<svg overflow="visible" xmlns="http://www.w3.org/2000/svg" width="16" height="18" viewBox="0 0 16 18" fill="none">
  <path d="M 2 6 L 1 6 L 2 6 Z M 8 0 L 8 -1 L 8 0 Z M 0 14 C -0.552 14 -1 14.448 -1 15 C -1 15.552 -0.552 16 0 16 L 0 14 Z M 16 16 C 16.552 16 17 15.552 17 15 C 17 14.448 16.552 14 16 14 L 16 16 Z M 7 17 C 6.448 17 6 17.448 6 18 C 6 18.552 6.448 19 7 19 L 7 17 Z M 9 19 C 9.552 19 10 18.552 10 18 C 10 17.448 9.552 17 9 17 L 9 19 Z M 3 15 L 3 6 L 1 6 L 1 15 L 3 15 Z M 3 6 C 3 4.674 3.527 3.402 4.464 2.464 L 3.05 1.05 C 1.737 2.363 1 4.143 1 6 L 3 6 Z M 4.464 2.464 C 5.402 1.527 6.674 1 8 1 L 8 -1 C 6.143 -1 4.363 -0.263 3.05 1.05 L 4.464 2.464 Z M 8 1 C 9.326 1 10.598 1.527 11.536 2.464 L 12.95 1.05 C 11.637 -0.263 9.857 -1 8 -1 L 8 1 Z M 11.536 2.464 C 12.473 3.402 13 4.674 13 6 L 15 6 C 15 4.143 14.263 2.363 12.95 1.05 L 11.536 2.464 Z M 13 6 L 13 15 L 15 15 L 15 6 L 13 6 Z M 2 16 L 14 16 L 14 14 L 2 14 L 2 16 Z M 2 14 L 0 14 L 0 16 L 2 16 L 2 14 Z M 14 16 L 16 16 L 16 14 L 14 14 L 14 16 Z M 7 19 L 9 19 L 9 17 L 7 17 L 7 19 Z" fill="currentColor" fill-rule="nonzero"></path>
</svg>