<svg overflow="visible" xmlns="http://www.w3.org/2000/svg" width="15" height="10" viewBox="0 0 15 10" fill="none">
  <path d="M 15.707 0.707 C 16.098 0.317 16.098 -0.317 15.707 -0.707 C 15.317 -1.098 14.683 -1.098 14.293 -0.707 L 15.707 0.707 Z M 5 10 L 4.293 10.707 C 4.683 11.098 5.317 11.098 5.707 10.707 L 5 10 Z M 0.707 4.293 C 0.317 3.902 -0.317 3.902 -0.707 4.293 C -1.098 4.683 -1.098 5.317 -0.707 5.707 L 0.707 4.293 Z M 14.293 -0.707 L 4.293 9.293 L 5.707 10.707 L 15.707 0.707 L 14.293 -0.707 Z M 5.707 9.293 L 0.707 4.293 L -0.707 5.707 L 4.293 10.707 L 5.707 9.293 Z" fill="currentColor" fill-rule="nonzero"></path>
</svg>