<svg overflow="visible" xmlns="http://www.w3.org/2000/svg" width="16" height="12" viewBox="0 0 16 12" fill="none">
  <path d="M 0 -1 C -0.552 -1 -1 -0.552 -1 0 C -1 0.552 -0.552 1 0 1 L 0 -1 Z M 16 1 C 16.552 1 17 0.552 17 0 C 17 -0.552 16.552 -1 16 -1 L 16 1 Z M 3 5 C 2.448 5 2 5.448 2 6 C 2 6.552 2.448 7 3 7 L 3 5 Z M 13 7 C 13.552 7 14 6.552 14 6 C 14 5.448 13.552 5 13 5 L 13 7 Z M 7 11 C 6.448 11 6 11.448 6 12 C 6 12.552 6.448 13 7 13 L 7 11 Z M 9 13 C 9.552 13 10 12.552 10 12 C 10 11.448 9.552 11 9 11 L 9 13 Z M 0 1 L 16 1 L 16 -1 L 0 -1 L 0 1 Z M 3 7 L 13 7 L 13 5 L 3 5 L 3 7 Z M 7 13 L 9 13 L 9 11 L 7 11 L 7 13 Z" fill="currentColor" fill-rule="nonzero"></path>
</svg>