<svg overflow="visible" xmlns="http://www.w3.org/2000/svg" width="10.500" height="12.250" viewBox="0 0 10.500 12.250" fill="none">
  <path d="M 0 0 L 0 -1 C -0.552 -1 -1 -0.552 -1 0 L 0 0 Z M 10.5 0 L 11.5 0 C 11.5 -0.552 11.052 -1 10.5 -1 L 10.5 0 Z M 0 1 L 10.5 1 L 10.5 -1 L 0 -1 L 0 1 Z M 9.5 0 L 9.5 10.5 L 11.5 10.5 L 11.5 0 L 9.5 0 Z M 9.5 10.5 C 9.5 10.699 9.421 10.89 9.28 11.03 L 10.695 12.445 C 11.21 11.929 11.5 11.229 11.5 10.5 L 9.5 10.5 Z M 9.28 11.03 C 9.14 11.171 8.949 11.25 8.75 11.25 L 8.75 13.25 C 9.479 13.25 10.179 12.96 10.695 12.445 L 9.28 11.03 Z M 8.75 11.25 L 1.75 11.25 L 1.75 13.25 L 8.75 13.25 L 8.75 11.25 Z M 1.75 11.25 C 1.551 11.25 1.36 11.171 1.22 11.03 L -0.195 12.445 C 0.321 12.96 1.021 13.25 1.75 13.25 L 1.75 11.25 Z M 1.22 11.03 C 1.079 10.89 1 10.699 1 10.5 L -1 10.5 C -1 11.229 -0.71 11.929 -0.195 12.445 L 1.22 11.03 Z M 1 10.5 L 1 0 L -1 0 L -1 10.5 L 1 10.5 Z" fill="currentColor" fill-rule="nonzero"></path>
</svg>