<svg overflow="visible" xmlns="http://www.w3.org/2000/svg" width="12" height="16" viewBox="0 0 12 16" fill="none">
  <path d="M 1.707 7.293 C 1.317 6.902 0.683 6.902 0.293 7.293 C -0.098 7.683 -0.098 8.317 0.293 8.707 L 1.707 7.293 Z M 6 13 L 5.293 13.707 C 5.683 14.098 6.317 14.098 6.707 13.707 L 6 13 Z M 11.707 8.707 C 12.098 8.317 12.098 7.683 11.707 7.293 C 11.317 6.902 10.683 6.902 10.293 7.293 L 11.707 8.707 Z M 7 0 C 7 -0.552 6.552 -1 6 -1 C 5.448 -1 5 -0.552 5 0 L 7 0 Z M 0 15 C -0.552 15 -1 15.448 -1 16 C -1 16.552 -0.552 17 0 17 L 0 15 Z M 12 17 C 12.552 17 13 16.552 13 16 C 13 15.448 12.552 15 12 15 L 12 17 Z M 0.293 8.707 L 5.293 13.707 L 6.707 12.293 L 1.707 7.293 L 0.293 8.707 Z M 6.707 13.707 L 11.707 8.707 L 10.293 7.293 L 5.293 12.293 L 6.707 13.707 Z M 7 13 L 7 0 L 5 0 L 5 13 L 7 13 Z M 0 17 L 12 17 L 12 15 L 0 15 L 0 17 Z" fill="currentColor" fill-rule="nonzero"></path>
</svg>