<svg overflow="visible" xmlns="http://www.w3.org/2000/svg" width="12" height="11.415" viewBox="0 0 12 11.415" fill="none">
  <path d="M 0.706 8.592 L 0.176 8.061 C 0.079 8.157 0.011 8.278 -0.022 8.41 L 0.706 8.592 Z M 0 11.415 L -0.728 11.233 C -0.792 11.489 -0.717 11.759 -0.53 11.946 C -0.344 12.132 -0.074 12.207 0.182 12.143 L 0 11.415 Z M 2.824 10.709 L 3.005 11.437 C 3.137 11.404 3.258 11.336 3.354 11.24 L 2.824 10.709 Z M 11.002 2.531 L 11.532 3.061 L 11.532 3.061 L 11.002 2.531 Z M 11.002 0.535 L 11.532 0.005 L 11.532 0.004 L 11.002 0.535 Z M 10.88 0.413 L 11.411 -0.117 L 11.411 -0.117 L 10.88 0.413 Z M 8.884 0.413 L 8.354 -0.117 L 8.354 -0.117 L 8.884 0.413 Z M 8.295 1.003 C 8.002 0.71 7.527 0.71 7.234 1.003 C 6.941 1.295 6.941 1.77 7.234 2.063 L 8.295 1.003 Z M 9.352 4.181 C 9.645 4.474 10.12 4.474 10.413 4.181 C 10.706 3.888 10.706 3.413 10.413 3.12 L 9.352 4.181 Z M 6.353 10.665 C 5.939 10.665 5.603 11.001 5.603 11.415 C 5.603 11.829 5.939 12.165 6.353 12.165 L 6.353 10.665 Z M 12 12.165 C 12.414 12.165 12.75 11.829 12.75 11.415 C 12.75 11.001 12.414 10.665 12 10.665 L 12 12.165 Z M -0.022 8.41 L -0.728 11.233 L 0.728 11.597 L 1.433 8.774 L -0.022 8.41 Z M 0.182 12.143 L 3.005 11.437 L 2.642 9.982 L -0.182 10.688 L 0.182 12.143 Z M 3.354 11.24 L 11.532 3.061 L 10.472 2.001 L 2.293 10.179 L 3.354 11.24 Z M 11.532 3.061 C 11.938 2.656 12.165 2.106 12.165 1.533 L 10.665 1.533 C 10.665 1.708 10.596 1.877 10.471 2.001 L 11.532 3.061 Z M 12.165 1.533 C 12.165 0.96 11.938 0.41 11.532 0.005 L 10.471 1.065 C 10.596 1.189 10.665 1.357 10.665 1.533 L 12.165 1.533 Z M 11.532 0.004 L 11.411 -0.117 L 10.35 0.944 L 10.472 1.065 L 11.532 0.004 Z M 11.411 -0.117 C 11.005 -0.522 10.456 -0.75 9.882 -0.75 L 9.882 0.75 C 10.058 0.75 10.226 0.82 10.35 0.944 L 11.411 -0.117 Z M 9.882 -0.75 C 9.309 -0.75 8.759 -0.522 8.354 -0.117 L 9.414 0.944 C 9.539 0.82 9.707 0.75 9.882 0.75 L 9.882 -0.75 Z M 8.354 -0.117 L 0.176 8.061 L 1.236 9.122 L 9.415 0.944 L 8.354 -0.117 Z M 7.234 2.063 L 9.352 4.181 L 10.413 3.12 L 8.295 1.003 L 7.234 2.063 Z M 6.353 12.165 L 12 12.165 L 12 10.665 L 6.353 10.665 L 6.353 12.165 Z" fill="currentColor" fill-rule="nonzero"></path>
</svg>