<svg overflow="visible" xmlns="http://www.w3.org/2000/svg" width="18" height="19.070" viewBox="0 0 18 19.070" fill="none">
  <path d="M 9.297 16.301 C 9.116 16.442 8.864 16.442 8.683 16.301 L 2.231 11.285 C 1.871 11.005 1.369 11.006 1.009 11.285 L 1.009 11.285 C 0.497 11.683 0.497 12.457 1.009 12.855 L 7.772 18.115 C 8.494 18.677 9.506 18.677 10.228 18.115 L 16.984 12.86 C 17.5 12.459 17.5 11.68 16.985 11.279 L 16.985 11.279 C 16.623 10.997 16.116 10.997 15.755 11.279 L 9.297 16.301 Z M 7.772 13.045 C 8.494 13.607 9.506 13.606 10.228 13.044 L 16.36 8.27 L 16.981 7.789 C 17.498 7.389 17.498 6.61 16.983 6.209 L 10.228 0.955 C 9.506 0.393 8.494 0.393 7.772 0.955 L 1.014 6.211 C 0.5 6.611 0.499 7.389 1.013 7.79 L 1.63 8.27 L 7.772 13.045 Z M 8.693 2.769 C 8.873 2.629 9.127 2.629 9.307 2.769 L 14.233 6.606 C 14.49 6.806 14.49 7.194 14.233 7.394 L 9.307 11.231 C 9.127 11.371 8.873 11.371 8.693 11.231 L 3.767 7.394 C 3.51 7.194 3.51 6.806 3.767 6.606 L 8.693 2.769 Z" fill="currentColor" fill-rule="nonzero"></path>
</svg>