<svg overflow="visible" xmlns="http://www.w3.org/2000/svg" width="16" height="20" viewBox="0 0 16 20" fill="none">
  <path d="M 9 3 C 9.552 3 10 2.552 10 2 C 10 1.448 9.552 1 9 1 L 9 3 Z M 2 2 L 2 1 L 2 2 Z M 0 4 L -1 4 L 0 4 Z M 0 16 L -1 16 L 0 16 Z M 9 19 C 9.552 19 10 18.552 10 18 C 10 17.448 9.552 17 9 17 L 9 19 Z M 13 1 C 12.448 1 12 1.448 12 2 C 12 2.552 12.448 3 13 3 L 13 1 Z M 14 2 L 14 1 L 14 2 Z M 15 5 C 15 5.552 15.448 6 16 6 C 16.552 6 17 5.552 17 5 L 15 5 Z M 17 15 C 17 14.448 16.552 14 16 14 C 15.448 14 15 14.448 15 15 L 17 15 Z M 13 17 C 12.448 17 12 17.448 12 18 C 12 18.552 12.448 19 13 19 L 13 17 Z M 17 9 C 17 8.448 16.552 8 16 8 C 15.448 8 15 8.448 15 9 L 17 9 Z M 15 11 C 15 11.552 15.448 12 16 12 C 16.552 12 17 11.552 17 11 L 15 11 Z M 9 0 C 9 -0.552 8.552 -1 8 -1 C 7.448 -1 7 -0.552 7 0 L 9 0 Z M 7 20 C 7 20.552 7.448 21 8 21 C 8.552 21 9 20.552 9 20 L 7 20 Z M 9 1 L 2 1 L 2 3 L 9 3 L 9 1 Z M 2 1 C 1.204 1 0.441 1.316 -0.121 1.879 L 1.293 3.293 C 1.48 3.105 1.735 3 2 3 L 2 1 Z M -0.121 1.879 C -0.684 2.441 -1 3.204 -1 4 L 1 4 C 1 3.735 1.105 3.48 1.293 3.293 L -0.121 1.879 Z M -1 4 L -1 16 L 1 16 L 1 4 L -1 4 Z M -1 16 C -1 16.796 -0.684 17.559 -0.121 18.121 L 1.293 16.707 C 1.105 16.52 1 16.265 1 16 L -1 16 Z M -0.121 18.121 C 0.441 18.684 1.204 19 2 19 L 2 17 C 1.735 17 1.48 16.895 1.293 16.707 L -0.121 18.121 Z M 2 19 L 9 19 L 9 17 L 2 17 L 2 19 Z M 13 3 L 14 3 L 14 1 L 13 1 L 13 3 Z M 14 3 C 14.265 3 14.52 3.105 14.707 3.293 L 16.121 1.879 C 15.559 1.316 14.796 1 14 1 L 14 3 Z M 14.707 3.293 C 14.895 3.48 15 3.735 15 4 L 17 4 C 17 3.204 16.684 2.441 16.121 1.879 L 14.707 3.293 Z M 15 4 L 15 5 L 17 5 L 17 4 L 15 4 Z M 15 15 L 15 16 L 17 16 L 17 15 L 15 15 Z M 15 16 C 15 16.265 14.895 16.52 14.707 16.707 L 16.121 18.121 C 16.684 17.559 17 16.796 17 16 L 15 16 Z M 14.707 16.707 C 14.52 16.895 14.265 17 14 17 L 14 19 C 14.796 19 15.559 18.684 16.121 18.121 L 14.707 16.707 Z M 14 17 L 13 17 L 13 19 L 14 19 L 14 17 Z M 15 9 L 15 11 L 17 11 L 17 9 L 15 9 Z M 7 0 L 7 20 L 9 20 L 9 0 L 7 0 Z" fill="currentColor" fill-rule="nonzero"></path>
</svg>