<svg overflow="visible" xmlns="http://www.w3.org/2000/svg" width="18" height="18" viewBox="0 0 18 18" fill="none">
  <path d="M 3.343 14.657 C 2.953 14.266 2.319 14.266 1.929 14.657 C 1.538 15.047 1.538 15.681 1.929 16.071 L 3.343 14.657 Z M 0 9.004 L 1 9.004 L 1 9.004 L 0 9.004 Z M -1 11 C -1 11.552 -0.552 12 0 12 C 0.552 12 1 11.552 1 11 L -1 11 Z M 2.636 15.364 L 1.929 16.071 C 3.565 17.707 5.718 18.725 8.02 18.952 L 8.118 17.957 L 8.216 16.962 C 6.374 16.78 4.652 15.966 3.343 14.657 L 2.636 15.364 Z M 8.118 17.957 L 8.02 18.952 C 10.323 19.179 12.633 18.6 14.557 17.314 L 14.001 16.483 L 13.445 15.651 C 11.906 16.68 10.058 17.143 8.216 16.962 L 8.118 17.957 Z M 14.001 16.483 L 14.557 17.314 C 16.48 16.028 17.899 14.116 18.57 11.901 L 17.613 11.611 L 16.656 11.321 C 16.119 13.092 14.984 14.623 13.445 15.651 L 14.001 16.483 Z M 17.613 11.611 L 18.57 11.901 C 19.241 9.687 19.124 7.309 18.238 5.171 L 17.314 5.554 L 16.39 5.937 C 17.099 7.647 17.193 9.55 16.656 11.321 L 17.613 11.611 Z M 17.314 5.554 L 18.238 5.171 C 17.352 3.034 15.752 1.27 13.712 0.18 L 13.24 1.062 L 12.769 1.944 C 14.402 2.816 15.682 4.227 16.39 5.937 L 17.314 5.554 Z M 13.24 1.062 L 13.712 0.18 C 11.671 -0.911 9.315 -1.259 7.046 -0.807 L 7.241 0.174 L 7.437 1.154 C 9.252 0.793 11.137 1.072 12.769 1.944 L 13.24 1.062 Z M 7.241 0.174 L 7.046 -0.807 C 4.777 -0.355 2.735 0.87 1.267 2.659 L 2.041 3.293 L 2.814 3.927 C 3.988 2.496 5.621 1.516 7.437 1.154 L 7.241 0.174 Z M 2.041 3.293 L 1.267 2.659 C -0.2 4.448 -1.001 6.691 -1 9.004 L 0 9.004 L 1 9.004 C 0.999 7.153 1.64 5.359 2.814 3.927 L 2.041 3.293 Z M 0 9.004 L -1 9.004 L -1 11 L 0 11 L 1 11 L 1 9.004 L 0 9.004 Z" fill="currentColor" fill-rule="nonzero"></path>
</svg>