<svg overflow="visible" xmlns="http://www.w3.org/2000/svg" width="7.158" height="7.158" viewBox="0 0 7.158 7.158" fill="none">
  <path d="M 0 2.829 C -0.414 2.829 -0.75 3.165 -0.75 3.579 C -0.75 3.993 -0.414 4.329 0 4.329 L 0 3.579 L 0 2.829 Z M 7.158 4.329 C 7.572 4.329 7.908 3.993 7.908 3.579 C 7.908 3.165 7.572 2.829 7.158 2.829 L 7.158 3.579 L 7.158 4.329 Z M 4.329 0 C 4.329 -0.414 3.993 -0.75 3.579 -0.75 C 3.165 -0.75 2.829 -0.414 2.829 0 L 3.579 0 L 4.329 0 Z M 2.829 7.158 C 2.829 7.572 3.165 7.908 3.579 7.908 C 3.993 7.908 4.329 7.572 4.329 7.158 L 3.579 7.158 L 2.829 7.158 Z M 0 3.579 L 0 4.329 L 7.158 4.329 L 7.158 3.579 L 7.158 2.829 L 0 2.829 L 0 3.579 Z M 3.579 0 L 2.829 0 L 2.829 7.158 L 3.579 7.158 L 4.329 7.158 L 4.329 0 L 3.579 0 Z" fill="currentColor" fill-rule="nonzero"></path>
</svg>