<svg overflow="visible" xmlns="http://www.w3.org/2000/svg" width="17.042" height="14.794" viewBox="0 0 17.042 14.794" fill="none">
  <path d="M 15.622 8.55 L 16.329 9.257 L 16.338 9.248 L 15.622 8.55 Z M 9.965 14.208 L 10.672 14.915 L 10.672 14.915 L 9.965 14.208 Z M 7.137 14.208 L 6.43 14.915 L 6.43 14.915 L 7.137 14.208 Z M 1.48 8.551 L 2.187 7.844 L 2.184 7.841 L 1.48 8.551 Z M 8.551 1.48 L 7.841 2.184 C 8.227 2.574 8.856 2.579 9.249 2.196 L 8.551 1.48 Z M 14.915 7.843 L 9.258 13.501 L 10.672 14.915 L 16.329 9.257 L 14.915 7.843 Z M 9.258 13.501 C 9.07 13.688 8.816 13.794 8.551 13.794 L 8.551 15.794 C 9.346 15.794 10.109 15.478 10.672 14.915 L 9.258 13.501 Z M 8.551 13.794 C 8.286 13.794 8.032 13.688 7.844 13.501 L 6.43 14.915 C 6.993 15.478 7.755 15.794 8.551 15.794 L 8.551 13.794 Z M 7.844 13.501 L 2.187 7.844 L 0.773 9.258 L 6.43 14.915 L 7.844 13.501 Z M 2.184 7.841 C 1.81 7.47 1.513 7.029 1.31 6.543 L -0.536 7.314 C -0.231 8.043 0.215 8.705 0.776 9.261 L 2.184 7.841 Z M 1.31 6.543 C 1.106 6.057 1.001 5.536 1 5.009 L -1 5.013 C -0.998 5.803 -0.84 6.585 -0.536 7.314 L 1.31 6.543 Z M 1 5.009 C 0.999 4.482 1.102 3.96 1.303 3.473 L -0.546 2.71 C -0.847 3.44 -1.002 4.223 -1 5.013 L 1 5.009 Z M 1.303 3.473 C 1.504 2.986 1.799 2.544 2.172 2.172 L 0.757 0.757 C 0.199 1.316 -0.244 1.98 -0.546 2.71 L 1.303 3.473 Z M 2.172 2.172 C 2.544 1.799 2.986 1.504 3.473 1.303 L 2.71 -0.546 C 1.98 -0.244 1.316 0.199 0.757 0.757 L 2.172 2.172 Z M 3.473 1.303 C 3.96 1.102 4.482 0.999 5.009 1 L 5.013 -1 C 4.223 -1.002 3.44 -0.847 2.71 -0.546 L 3.473 1.303 Z M 5.009 1 C 5.536 1.001 6.057 1.106 6.543 1.31 L 7.314 -0.536 C 6.585 -0.84 5.803 -0.998 5.013 -1 L 5.009 1 Z M 6.543 1.31 C 7.029 1.513 7.47 1.81 7.841 2.184 L 9.261 0.776 C 8.705 0.215 8.043 -0.231 7.314 -0.536 L 6.543 1.31 Z M 9.249 2.196 C 10.002 1.461 11.015 1.053 12.067 1.06 L 12.079 -0.94 C 10.501 -0.95 8.983 -0.338 7.853 0.764 L 9.249 2.196 Z M 12.067 1.06 C 13.119 1.066 14.126 1.487 14.87 2.231 L 16.284 0.817 C 15.168 -0.299 13.657 -0.93 12.079 -0.94 L 12.067 1.06 Z M 14.87 2.231 C 15.614 2.975 16.035 3.982 16.042 5.034 L 18.042 5.021 C 18.031 3.443 17.4 1.933 16.284 0.817 L 14.87 2.231 Z M 16.042 5.034 C 16.048 6.086 15.64 7.099 14.906 7.852 L 16.338 9.248 C 17.44 8.118 18.052 6.599 18.042 5.021 L 16.042 5.034 Z" fill="currentColor" fill-rule="nonzero"></path>
</svg>