<svg overflow="visible" xmlns="http://www.w3.org/2000/svg" width="6" height="11" viewBox="0 0 6 11" fill="none">
  <path d="M -1 5 C -1 5.552 -0.552 6 0 6 C 0.552 6 1 5.552 1 5 L 0 5 L -1 5 Z M 1.714 10 C 1.162 10 0.714 10.448 0.714 11 C 0.714 11.552 1.162 12 1.714 12 L 1.714 11 L 1.714 10 Z M 0 5 L 1 5 L 1 3 L 0 3 L -1 3 L -1 5 L 0 5 Z M 6 3 L 5 3 L 5 7 L 6 7 L 7 7 L 7 3 L 6 3 Z M 2 11 L 2 10 L 1.714 10 L 1.714 11 L 1.714 12 L 2 12 L 2 11 Z M 6 7 L 5 7 C 5 8.657 3.657 10 2 10 L 2 11 L 2 12 C 4.761 12 7 9.761 7 7 L 6 7 Z M 3 0 L 3 1 C 4.105 1 5 1.895 5 3 L 6 3 L 7 3 C 7 0.791 5.209 -1 3 -1 L 3 0 Z M 0 3 L 1 3 C 1 1.895 1.895 1 3 1 L 3 0 L 3 -1 C 0.791 -1 -1 0.791 -1 3 L 0 3 Z" fill="currentColor" fill-rule="nonzero"></path>
</svg>