<svg overflow="visible" xmlns="http://www.w3.org/2000/svg" width="15.666" height="15.667" viewBox="0 0 15.666 15.667" fill="none">
  <path d="M 1.139 5.754 L 0.709 4.851 L 0.709 4.851 L 1.139 5.754 Z M 12.799 0.202 L 13.229 1.105 L 13.229 1.105 L 12.799 0.202 Z M 15.464 2.868 L 16.367 3.298 L 16.367 3.298 L 15.464 2.868 Z M 9.912 14.527 L 10.815 14.957 L 10.815 14.957 L 9.912 14.527 Z M 6.233 14.369 L 5.297 14.72 L 5.297 14.72 L 6.233 14.369 Z M 5.207 11.63 L 6.144 11.279 L 6.144 11.279 L 5.207 11.63 Z M 4.037 10.46 L 4.389 9.524 L 4.388 9.524 L 4.037 10.46 Z M 1.297 9.433 L 0.946 10.369 L 0.946 10.369 L 1.297 9.433 Z M 1.569 6.657 L 13.229 1.105 L 12.369 -0.701 L 0.709 4.851 L 1.569 6.657 Z M 13.229 1.105 C 14.077 0.701 14.967 1.586 14.561 2.439 L 16.367 3.298 C 17.58 0.748 14.921 -1.917 12.369 -0.701 L 13.229 1.105 Z M 14.561 2.438 L 9.009 14.097 L 10.815 14.957 L 16.367 3.298 L 14.561 2.438 Z M 9.009 14.097 C 8.63 14.894 7.48 14.845 7.17 14.018 L 5.297 14.72 C 6.227 17.2 9.677 17.346 10.815 14.957 L 9.009 14.097 Z M 7.17 14.018 L 6.144 11.279 L 4.271 11.981 L 5.297 14.72 L 7.17 14.018 Z M 6.144 11.279 C 5.993 10.878 5.759 10.514 5.456 10.211 L 4.042 11.626 C 4.143 11.726 4.221 11.848 4.271 11.981 L 6.144 11.279 Z M 5.456 10.211 C 5.153 9.909 4.789 9.674 4.389 9.524 L 3.686 11.396 C 3.82 11.446 3.941 11.525 4.042 11.626 L 5.456 10.211 Z M 4.388 9.524 L 1.648 8.497 L 0.946 10.369 L 3.686 11.396 L 4.388 9.524 Z M 1.649 8.497 C 0.822 8.187 0.773 7.036 1.569 6.657 L 0.709 4.851 C -1.681 5.99 -1.531 9.44 0.946 10.369 L 1.649 8.497 Z" fill="currentColor" fill-rule="nonzero"></path>
</svg>