<svg overflow="visible" xmlns="http://www.w3.org/2000/svg" width="15.556" height="18.778" viewBox="0 0 15.556 18.778" fill="none">
  <path d="M 7.778 18.778 L 7.071 19.485 C 7.258 19.672 7.513 19.778 7.778 19.778 C 8.043 19.778 8.298 19.672 8.485 19.485 L 7.778 18.778 Z M 13.278 13.278 L 13.985 13.985 L 13.985 13.985 L 13.278 13.278 Z M 7.778 0 L 7.778 1 L 7.778 0 Z M 2.278 13.278 L 1.571 13.985 L 1.571 13.985 L 2.278 13.278 Z M 8.485 19.485 L 13.985 13.985 L 12.571 12.571 L 7.071 18.071 L 8.485 19.485 Z M 13.985 13.985 C 15.213 12.757 16.049 11.193 16.387 9.49 L 14.426 9.1 C 14.164 10.415 13.519 11.623 12.571 12.571 L 13.985 13.985 Z M 16.387 9.49 C 16.726 7.788 16.552 6.023 15.888 4.419 L 14.04 5.184 C 14.553 6.423 14.687 7.785 14.426 9.1 L 16.387 9.49 Z M 15.888 4.419 C 15.223 2.815 14.098 1.444 12.655 0.479 L 11.544 2.142 C 12.658 2.887 13.527 3.946 14.04 5.184 L 15.888 4.419 Z M 12.655 0.479 C 11.211 -0.485 9.514 -1 7.778 -1 L 7.778 1 C 9.119 1 10.429 1.398 11.544 2.142 L 12.655 0.479 Z M 7.778 -1 C 6.042 -1 4.345 -0.485 2.901 0.479 L 4.012 2.142 C 5.127 1.398 6.437 1 7.778 1 L 7.778 -1 Z M 2.901 0.479 C 1.458 1.444 0.333 2.815 -0.332 4.419 L 1.516 5.184 C 2.029 3.946 2.898 2.887 4.012 2.142 L 2.901 0.479 Z M -0.332 4.419 C -0.996 6.023 -1.17 7.788 -0.831 9.49 L 1.13 9.1 C 0.869 7.785 1.003 6.423 1.516 5.184 L -0.332 4.419 Z M -0.831 9.49 C -0.493 11.193 0.343 12.757 1.571 13.985 L 2.985 12.571 C 2.037 11.623 1.392 10.415 1.13 9.1 L -0.831 9.49 Z M 1.571 13.985 L 7.071 19.485 L 8.485 18.071 L 2.985 12.571 L 1.571 13.985 Z" fill="currentColor" fill-rule="nonzero"></path>
</svg>