<svg overflow="visible" xmlns="http://www.w3.org/2000/svg" width="6" height="6" viewBox="0 0 6 6" fill="none">
  <path d="M 2.307 0.739 L 2.111 -0.242 L 2.11 -0.242 L 2.307 0.739 Z M 6 0 L 6.981 0.196 C 7.046 -0.132 6.944 -0.471 6.707 -0.707 C 6.471 -0.944 6.132 -1.046 5.804 -0.981 L 6 0 Z M 5.261 3.693 L 4.28 3.497 L 4.28 3.497 L 5.261 3.693 Z M 3.693 5.262 L 3.889 6.243 L 3.89 6.242 L 3.693 5.262 Z M 0 6 L -0.981 5.804 C -1.046 6.132 -0.944 6.471 -0.707 6.707 C -0.471 6.943 -0.132 7.046 0.196 6.981 L 0 6 Z M 0.739 2.307 L -0.242 2.11 L -0.242 2.111 L 0.739 2.307 Z M 2.503 1.72 L 6.196 0.981 L 5.804 -0.981 L 2.111 -0.242 L 2.503 1.72 Z M 5.019 -0.196 L 4.28 3.497 L 6.242 3.889 L 6.981 0.196 L 5.019 -0.196 Z M 4.28 3.497 C 4.242 3.691 4.147 3.868 4.007 4.008 L 5.422 5.422 C 5.84 5.003 6.126 4.47 6.242 3.889 L 4.28 3.497 Z M 4.007 4.008 C 3.868 4.148 3.69 4.243 3.496 4.282 L 3.89 6.242 C 4.47 6.126 5.003 5.84 5.422 5.422 L 4.007 4.008 Z M 3.497 4.281 L -0.196 5.019 L 0.196 6.981 L 3.889 6.243 L 3.497 4.281 Z M 0.981 6.196 L 1.72 2.503 L -0.242 2.111 L -0.981 5.804 L 0.981 6.196 Z M 1.72 2.504 C 1.758 2.31 1.853 2.132 1.993 1.993 L 0.579 0.579 C 0.16 0.997 -0.125 1.53 -0.242 2.11 L 1.72 2.504 Z M 1.993 1.993 C 2.132 1.853 2.31 1.758 2.504 1.72 L 2.11 -0.242 C 1.53 -0.125 0.997 0.16 0.579 0.579 L 1.993 1.993 Z" fill="currentColor" fill-rule="nonzero"></path>
</svg>