<svg overflow="visible" xmlns="http://www.w3.org/2000/svg" width="14.010" height="0.010" viewBox="0 0 14.010 0.010" fill="none">
  <path d="M 7.01 0 L 8.51 0 C 8.51 -0.828 7.838 -1.5 7.01 -1.5 L 7.01 0 Z M 7.01 0.01 L 7.01 1.51 C 7.838 1.51 8.51 0.838 8.51 0.01 L 7.01 0.01 Z M 7 0.01 L 5.5 0.01 C 5.5 0.838 6.172 1.51 7 1.51 L 7 0.01 Z M 7 0 L 7 -1.5 C 6.172 -1.5 5.5 -0.828 5.5 0 L 7 0 Z M 14.01 0 L 15.51 0 C 15.51 -0.828 14.838 -1.5 14.01 -1.5 L 14.01 0 Z M 14.01 0.01 L 14.01 1.51 C 14.838 1.51 15.51 0.838 15.51 0.01 L 14.01 0.01 Z M 14 0.01 L 12.5 0.01 C 12.5 0.838 13.172 1.51 14 1.51 L 14 0.01 Z M 14 0 L 14 -1.5 C 13.172 -1.5 12.5 -0.828 12.5 0 L 14 0 Z M 0.01 0 L 1.51 0 C 1.51 -0.828 0.838 -1.5 0.01 -1.5 L 0.01 0 Z M 0.01 0.01 L 0.01 1.51 C 0.838 1.51 1.51 0.838 1.51 0.01 L 0.01 0.01 Z M 0 0.01 L -1.5 0.01 C -1.5 0.838 -0.828 1.51 0 1.51 L 0 0.01 Z M 0 0 L 0 -1.5 C -0.828 -1.5 -1.5 -0.828 -1.5 0 L 0 0 Z M 7.01 0 L 5.51 0 L 5.51 0.01 L 7.01 0.01 L 8.51 0.01 L 8.51 0 L 7.01 0 Z M 7.01 0.01 L 7.01 -1.49 L 7 -1.49 L 7 0.01 L 7 1.51 L 7.01 1.51 L 7.01 0.01 Z M 7 0.01 L 8.5 0.01 L 8.5 0 L 7 0 L 5.5 0 L 5.5 0.01 L 7 0.01 Z M 7 0 L 7 1.5 L 7.01 1.5 L 7.01 0 L 7.01 -1.5 L 7 -1.5 L 7 0 Z M 14.01 0 L 12.51 0 L 12.51 0.01 L 14.01 0.01 L 15.51 0.01 L 15.51 0 L 14.01 0 Z M 14.01 0.01 L 14.01 -1.49 L 14 -1.49 L 14 0.01 L 14 1.51 L 14.01 1.51 L 14.01 0.01 Z M 14 0.01 L 15.5 0.01 L 15.5 0 L 14 0 L 12.5 0 L 12.5 0.01 L 14 0.01 Z M 14 0 L 14 1.5 L 14.01 1.5 L 14.01 0 L 14.01 -1.5 L 14 -1.5 L 14 0 Z M 0.01 0 L -1.49 0 L -1.49 0.01 L 0.01 0.01 L 1.51 0.01 L 1.51 0 L 0.01 0 Z M 0.01 0.01 L 0.01 -1.49 L 0 -1.49 L 0 0.01 L 0 1.51 L 0.01 1.51 L 0.01 0.01 Z M 0 0.01 L 1.5 0.01 L 1.5 0 L 0 0 L -1.5 0 L -1.5 0.01 L 0 0.01 Z M 0 0 L 0 1.5 L 0.01 1.5 L 0.01 0 L 0.01 -1.5 L 0 -1.5 L 0 0 Z" fill="currentColor" fill-rule="nonzero"></path>
</svg>