<svg overflow="visible" xmlns="http://www.w3.org/2000/svg" width="11" height="19" viewBox="0 0 11 19" fill="none">
  <path d="M 6.346 3.535 C 7.277 3.535 8.038 2.74 8.038 1.767 C 8.038 0.795 7.277 0 6.346 0 C 5.415 0 4.654 0.795 4.654 1.767 C 4.654 2.74 5.415 3.535 6.346 3.535 Z M 2.684 6.756 C 2.913 6.662 3.154 6.86 3.108 7.103 L 0.917 18.629 C 0.88 18.822 1.028 19 1.224 19 L 2.371 19 C 2.518 19 2.645 18.897 2.676 18.753 L 4.026 12.489 C 4.078 12.248 4.376 12.159 4.552 12.334 L 5.831 13.606 C 5.89 13.665 5.923 13.744 5.923 13.828 L 5.923 18.688 C 5.923 18.86 6.063 19 6.236 19 L 7.303 19 C 7.475 19 7.615 18.86 7.615 18.688 L 7.615 12.502 C 7.615 12.419 7.582 12.339 7.523 12.28 L 5.956 10.722 C 5.883 10.649 5.85 10.543 5.87 10.441 L 6.222 8.604 C 6.271 8.344 6.606 8.255 6.796 8.439 C 7.811 9.423 9.185 10.075 10.688 10.154 C 10.86 10.164 11 10.023 11 9.85 L 11 8.708 C 11 8.535 10.86 8.397 10.688 8.384 C 9.218 8.278 7.994 7.431 7.362 6.274 L 6.515 4.86 C 6.042 4.074 5.094 3.756 4.273 4.118 L 0.186 5.927 C 0.073 5.977 0 6.089 0 6.213 L 0 9.85 C 0 10.023 0.14 10.163 0.313 10.163 L 1.38 10.163 C 1.552 10.163 1.692 10.023 1.692 9.85 L 1.692 7.369 C 1.692 7.241 1.769 7.127 1.887 7.079 L 2.684 6.756 Z" fill="currentColor" fill-rule="nonzero"></path>
</svg>