<svg overflow="visible" xmlns="http://www.w3.org/2000/svg" width="0.010" height="0.010" viewBox="0 0 0.010 0.010" fill="none">
  <path d="M 0 0 L 0 -1.5 C -0.828 -1.5 -1.5 -0.828 -1.5 0 L 0 0 Z M 0.01 0 L 1.51 0 C 1.51 -0.828 0.838 -1.5 0.01 -1.5 L 0.01 0 Z M 0.01 0.01 L 0.01 1.51 C 0.838 1.51 1.51 0.838 1.51 0.01 L 0.01 0.01 Z M 0 0.01 L -1.5 0.01 C -1.5 0.838 -0.828 1.51 0 1.51 L 0 0.01 Z M 0 1.5 L 0.01 1.5 L 0.01 -1.5 L 0 -1.5 L 0 1.5 Z M -1.49 0 L -1.49 0.01 L 1.51 0.01 L 1.51 0 L -1.49 0 Z M 0.01 -1.49 L 0 -1.49 L 0 1.51 L 0.01 1.51 L 0.01 -1.49 Z M 1.5 0.01 L 1.5 0 L -1.5 0 L -1.5 0.01 L 1.5 0.01 Z" fill="currentColor" fill-rule="nonzero"></path>
</svg>