<svg overflow="visible" xmlns="http://www.w3.org/2000/svg" width="5" height="5" viewBox="0 0 5 5" fill="none">
  <path d="M 0 -1 C -0.552 -1 -1 -0.552 -1 0 C -1 0.552 -0.552 1 0 1 L 0 -1 Z M 5 0 L 6 0 C 6 -0.552 5.552 -1 5 -1 L 5 0 Z M 4 5 C 4 5.552 4.448 6 5 6 C 5.552 6 6 5.552 6 5 L 4 5 Z M -0.707 4.293 C -1.098 4.683 -1.098 5.317 -0.707 5.707 C -0.317 6.098 0.317 6.098 0.707 5.707 L -0.707 4.293 Z M 0 1 L 5 1 L 5 -1 L 0 -1 L 0 1 Z M 4 0 L 4 5 L 6 5 L 6 0 L 4 0 Z M 4.293 -0.707 L -0.707 4.293 L 0.707 5.707 L 5.707 0.707 L 4.293 -0.707 Z" fill="currentColor" fill-rule="nonzero"></path>
</svg>