<svg overflow="visible" xmlns="http://www.w3.org/2000/svg" width="18" height="17.998" viewBox="0 0 18 17.998" fill="none">
  <path d="M 18 8.998 L 17 8.998 L 17 9 L 18 8.998 Z M 16.474 14.014 L 15.644 13.456 L 15.643 13.457 L 16.474 14.014 Z M 9 17.998 L 9.001 16.998 L 8.999 16.998 L 9 17.998 Z M 1.526 14.014 L 2.357 13.457 L 2.356 13.457 L 1.526 14.014 Z M 17 9 C 17.003 10.587 16.53 12.139 15.644 13.456 L 17.304 14.572 C 18.412 12.924 19.003 10.982 19 8.996 L 17 9 Z M 15.643 13.457 C 14.912 14.548 13.924 15.441 12.765 16.059 L 13.706 17.824 C 15.155 17.051 16.391 15.934 17.305 14.571 L 15.643 13.457 Z M 12.765 16.059 C 11.607 16.676 10.314 16.999 9.001 16.998 L 8.999 18.998 C 10.641 18.999 12.257 18.596 13.706 17.824 L 12.765 16.059 Z M 8.999 16.998 C 7.686 16.999 6.393 16.676 5.235 16.059 L 4.294 17.824 C 5.743 18.596 7.359 18.999 9.001 18.998 L 8.999 16.998 Z M 5.235 16.059 C 4.076 15.441 3.088 14.548 2.357 13.457 L 0.695 14.571 C 1.609 15.934 2.845 17.051 4.294 17.824 L 5.235 16.059 Z M 2.356 13.457 C 1.66 12.419 1.217 11.232 1.062 9.992 L -0.923 10.24 C -0.729 11.791 -0.175 13.274 0.696 14.571 L 2.356 13.457 Z M 1.062 9.992 C 0.907 8.752 1.044 7.493 1.464 6.316 L -0.42 5.645 C -0.944 7.116 -1.117 8.69 -0.923 10.24 L 1.062 9.992 Z M 1.464 6.316 C 1.883 5.138 2.572 4.076 3.477 3.213 L 2.096 1.766 C 0.966 2.845 0.104 4.173 -0.42 5.645 L 1.464 6.316 Z M 3.477 3.213 C 4.381 2.35 5.474 1.711 6.67 1.347 L 6.087 -0.566 C 4.593 -0.111 3.226 0.687 2.096 1.766 L 3.477 3.213 Z M 6.67 1.347 C 7.865 0.983 9.13 0.904 10.361 1.117 L 10.701 -0.854 C 9.162 -1.12 7.582 -1.021 6.087 -0.566 L 6.67 1.347 Z M 10.361 1.117 C 11.593 1.329 12.757 1.827 13.762 2.571 L 14.952 0.964 C 13.697 0.034 12.241 -0.588 10.701 -0.854 L 10.361 1.117 Z M 13.762 2.571 C 14.766 3.315 15.582 4.284 16.144 5.4 L 17.93 4.5 C 17.227 3.105 16.207 1.894 14.952 0.964 L 13.762 2.571 Z M 16.144 5.4 C 16.707 6.516 17 7.748 17 8.998 L 19 8.998 C 19 7.435 18.633 5.895 17.93 4.5 L 16.144 5.4 Z" fill="currentColor" fill-rule="nonzero"></path>
</svg>