<svg overflow="visible" xmlns="http://www.w3.org/2000/svg" width="18.000" height="18.000" viewBox="0 0 18.000 18.000" fill="none">
  <path d="M 17.293 18.707 C 17.684 19.098 18.317 19.098 18.707 18.707 C 19.098 18.317 19.098 17.684 18.707 17.293 L 17.293 18.707 Z M 13.657 13.657 L 12.95 12.95 L 13.657 13.657 Z M 8 0 L 8 -1 L 8 0 Z M 2.343 2.343 L 3.05 3.05 L 2.343 2.343 Z M 18.707 17.293 L 14.364 12.95 L 12.95 14.364 L 17.293 18.707 L 18.707 17.293 Z M 14.364 14.364 C 15.2 13.529 15.863 12.536 16.315 11.444 L 14.468 10.679 C 14.116 11.528 13.6 12.3 12.95 12.95 L 14.364 14.364 Z M 16.315 11.444 C 16.768 10.352 17 9.182 17 8 L 15 8 C 15 8.919 14.819 9.83 14.468 10.679 L 16.315 11.444 Z M 17 8 C 17 6.818 16.768 5.648 16.315 4.556 L 14.468 5.321 C 14.819 6.171 15 7.081 15 8 L 17 8 Z M 16.315 4.556 C 15.863 3.464 15.2 2.472 14.364 1.636 L 12.95 3.05 C 13.6 3.7 14.116 4.472 14.468 5.321 L 16.315 4.556 Z M 14.364 1.636 C 13.529 0.8 12.536 0.137 11.444 -0.315 L 10.679 1.533 C 11.528 1.885 12.3 2.4 12.95 3.05 L 14.364 1.636 Z M 11.444 -0.315 C 10.352 -0.767 9.182 -1 8 -1 L 8 1 C 8.919 1 9.83 1.181 10.679 1.533 L 11.444 -0.315 Z M 8 -1 C 6.818 -1 5.648 -0.767 4.556 -0.315 L 5.321 1.533 C 6.171 1.181 7.081 1 8 1 L 8 -1 Z M 4.556 -0.315 C 3.464 0.137 2.472 0.8 1.636 1.636 L 3.05 3.05 C 3.7 2.4 4.472 1.885 5.321 1.533 L 4.556 -0.315 Z M 1.636 1.636 C -0.052 3.324 -1 5.613 -1 8 L 1 8 C 1 6.144 1.738 4.363 3.05 3.05 L 1.636 1.636 Z M -1 8 C -1 10.387 -0.052 12.676 1.636 14.364 L 3.05 12.95 C 1.738 11.637 1 9.857 1 8 L -1 8 Z M 1.636 14.364 C 3.324 16.052 5.613 17 8 17 L 8 15 C 6.144 15 4.363 14.263 3.05 12.95 L 1.636 14.364 Z M 8 17 C 10.387 17 12.676 16.052 14.364 14.364 L 12.95 12.95 C 11.637 14.263 9.857 15 8 15 L 8 17 Z" fill="currentColor" fill-rule="nonzero"></path>
</svg>