<svg overflow="visible" xmlns="http://www.w3.org/2000/svg" width="16" height="6" viewBox="0 0 16 6" fill="none">
  <path d="M 0 4 L -1 4 L 0 4 Z M 4 0 L 4 -1 L 4 0 Z M 12 0 L 12 -1 L 12 0 Z M 1 4 C 1 3.204 1.316 2.441 1.879 1.879 L 0.464 0.464 C -0.473 1.402 -1 2.674 -1 4 L 1 4 Z M 1.879 1.879 C 2.441 1.316 3.204 1 4 1 L 4 -1 C 2.674 -1 1.402 -0.473 0.464 0.464 L 1.879 1.879 Z M 4 1 L 12 1 L 12 -1 L 4 -1 L 4 1 Z M 12 1 C 12.796 1 13.559 1.316 14.121 1.879 L 15.536 0.464 C 14.598 -0.473 13.326 -1 12 -1 L 12 1 Z M 14.121 1.879 C 14.684 2.441 15 3.204 15 4 L 17 4 C 17 2.674 16.473 1.402 15.536 0.464 L 14.121 1.879 Z M 15 4 C 15 4.265 14.895 4.52 14.707 4.707 L 16.121 6.121 C 16.684 5.559 17 4.796 17 4 L 15 4 Z M 14.707 4.707 C 14.52 4.895 14.265 5 14 5 L 14 7 C 14.796 7 15.559 6.684 16.121 6.121 L 14.707 4.707 Z M 14 5 L 2 5 L 2 7 L 14 7 L 14 5 Z M 2 5 C 1.735 5 1.48 4.895 1.293 4.707 L -0.121 6.121 C 0.441 6.684 1.204 7 2 7 L 2 5 Z M 1.293 4.707 C 1.105 4.52 1 4.265 1 4 L -1 4 C -1 4.796 -0.684 5.559 -0.121 6.121 L 1.293 4.707 Z" fill="currentColor" fill-rule="nonzero"></path>
</svg>