<svg overflow="visible" xmlns="http://www.w3.org/2000/svg" width="16" height="17.998" viewBox="0 0 16 17.998" fill="none">
  <path d="M 12.272 3.007 L 13.136 2.503 L 12.272 3.007 Z M 16 1.999 L 17 1.998 L 16 1.999 Z M 3.728 7.991 L 2.863 8.493 L 2.864 8.495 L 3.728 7.991 Z M 0 8.999 L 1 8.999 L 1 8.997 L 0 8.999 Z M 3.728 10.007 L 2.864 9.503 L 2.864 9.503 L 3.728 10.007 Z M 12.272 14.991 L 13.136 15.494 L 13.137 15.493 L 12.272 14.991 Z M 16 15.999 L 15 15.997 L 15 15.998 L 16 15.999 Z M 12.272 3.007 L 11.408 3.51 C 11.74 4.08 12.251 4.525 12.861 4.775 L 13.24 3.85 L 13.62 2.925 C 13.417 2.842 13.247 2.693 13.136 2.503 L 12.272 3.007 Z M 13.24 3.85 L 12.861 4.775 C 13.471 5.026 14.146 5.068 14.783 4.896 L 14.522 3.931 L 14.261 2.965 C 14.049 3.023 13.824 3.009 13.62 2.925 L 13.24 3.85 Z M 14.522 3.931 L 14.783 4.896 C 15.42 4.724 15.982 4.347 16.383 3.823 L 15.588 3.215 L 14.794 2.608 C 14.661 2.782 14.473 2.908 14.261 2.965 L 14.522 3.931 Z M 15.588 3.215 L 16.383 3.823 C 16.783 3.299 17 2.658 17 1.998 L 16 1.999 L 15 1.999 C 15 2.219 14.928 2.433 14.794 2.608 L 15.588 3.215 Z M 16 1.999 L 17 1.998 C 17 1.538 16.893 1.083 16.689 0.671 L 15.793 1.114 L 14.896 1.557 C 14.964 1.694 15 1.846 15 1.999 L 16 1.999 Z M 15.793 1.114 L 16.689 0.671 C 16.485 0.258 16.189 -0.103 15.823 -0.383 L 15.215 0.412 L 14.608 1.206 C 14.73 1.299 14.828 1.419 14.896 1.557 L 15.793 1.114 Z M 15.215 0.412 L 15.823 -0.383 C 15.457 -0.662 15.032 -0.854 14.58 -0.943 L 14.387 0.038 L 14.193 1.019 C 14.344 1.049 14.486 1.113 14.608 1.206 L 15.215 0.412 Z M 14.387 0.038 L 14.58 -0.943 C 14.128 -1.032 13.662 -1.016 13.217 -0.896 L 13.478 0.069 L 13.739 1.035 C 13.887 0.995 14.043 0.989 14.193 1.019 L 14.387 0.038 Z M 13.478 0.069 L 13.217 -0.896 C 12.772 -0.776 12.361 -0.555 12.016 -0.25 L 12.677 0.5 L 13.339 1.25 C 13.454 1.148 13.591 1.075 13.739 1.035 L 13.478 0.069 Z M 12.677 0.5 L 12.016 -0.25 C 11.67 0.054 11.4 0.435 11.225 0.861 L 12.15 1.24 L 13.075 1.62 C 13.133 1.478 13.223 1.351 13.339 1.25 L 12.677 0.5 Z M 12.15 1.24 L 11.225 0.861 C 11.05 1.287 10.975 1.747 11.007 2.207 L 12.005 2.138 L 13.002 2.069 C 12.992 1.916 13.017 1.762 13.075 1.62 L 12.15 1.24 Z M 12.005 2.138 L 11.007 2.207 C 11.039 2.666 11.176 3.113 11.408 3.51 L 12.272 3.007 L 13.136 2.503 C 13.059 2.371 13.013 2.222 13.002 2.069 L 12.005 2.138 Z M 12.272 3.007 L 11.768 2.143 L 3.224 7.127 L 3.728 7.991 L 4.232 8.855 L 12.776 3.871 L 12.272 3.007 Z M 3.728 7.991 L 4.593 7.489 C 4.262 6.918 3.751 6.472 3.141 6.221 L 2.76 7.146 L 2.379 8.07 C 2.583 8.154 2.753 8.303 2.863 8.493 L 3.728 7.991 Z M 2.76 7.146 L 3.141 6.221 C 2.53 5.97 1.854 5.927 1.216 6.099 L 1.477 7.065 L 1.738 8.03 C 1.951 7.972 2.176 7.987 2.379 8.07 L 2.76 7.146 Z M 1.477 7.065 L 1.216 6.099 C 0.579 6.272 0.016 6.649 -0.384 7.174 L 0.41 7.781 L 1.205 8.388 C 1.339 8.213 1.526 8.087 1.738 8.03 L 1.477 7.065 Z M 0.41 7.781 L -0.384 7.174 C -0.785 7.699 -1.002 8.341 -1 9.001 L 0 8.999 L 1 8.997 C 0.999 8.777 1.072 8.563 1.205 8.388 L 0.41 7.781 Z M 0 8.999 L -1 8.998 C -1 9.658 -0.783 10.299 -0.383 10.823 L 0.412 10.215 L 1.206 9.608 C 1.072 9.433 1 9.219 1 8.999 L 0 8.999 Z M 0.412 10.215 L -0.383 10.823 C 0.018 11.347 0.58 11.724 1.217 11.896 L 1.478 10.931 L 1.739 9.965 C 1.527 9.908 1.339 9.782 1.206 9.608 L 0.412 10.215 Z M 1.478 10.931 L 1.217 11.896 C 1.854 12.068 2.529 12.026 3.139 11.775 L 2.76 10.85 L 2.38 9.925 C 2.176 10.009 1.951 10.023 1.739 9.965 L 1.478 10.931 Z M 2.76 10.85 L 3.139 11.775 C 3.749 11.525 4.26 11.08 4.592 10.51 L 3.728 10.007 L 2.864 9.503 C 2.753 9.693 2.583 9.842 2.38 9.925 L 2.76 10.85 Z M 3.728 7.991 L 2.864 8.495 C 2.954 8.648 3.001 8.822 3.001 8.999 L 4.001 8.999 L 5.001 8.999 C 5.001 8.468 4.859 7.946 4.592 7.487 L 3.728 7.991 Z M 4.001 8.999 L 3.001 8.999 C 3.001 9.176 2.954 9.35 2.864 9.503 L 3.728 10.007 L 4.592 10.511 C 4.859 10.052 5.001 9.53 5.001 8.999 L 4.001 8.999 Z M 3.728 10.007 L 3.224 10.871 L 11.768 15.855 L 12.272 14.991 L 12.776 14.127 L 4.232 9.143 L 3.728 10.007 Z M 12.272 14.991 L 13.137 15.493 C 13.247 15.303 13.417 15.154 13.621 15.07 L 13.24 14.146 L 12.86 13.221 C 12.249 13.472 11.738 13.918 11.407 14.489 L 12.272 14.991 Z M 13.24 14.146 L 13.621 15.07 C 13.824 14.987 14.049 14.972 14.262 15.03 L 14.523 14.065 L 14.784 13.099 C 14.146 12.927 13.47 12.97 12.86 13.221 L 13.24 14.146 Z M 14.523 14.065 L 14.262 15.03 C 14.474 15.087 14.662 15.213 14.795 15.388 L 15.59 14.781 L 16.385 14.174 C 15.984 13.649 15.421 13.272 14.784 13.099 L 14.523 14.065 Z M 15.59 14.781 L 14.795 15.388 C 14.928 15.563 15.001 15.777 15 15.997 L 16 15.999 L 17 16.001 C 17.002 15.341 16.785 14.699 16.385 14.174 L 15.59 14.781 Z M 16 15.999 L 15 15.998 C 15 16.152 14.964 16.303 14.896 16.441 L 15.793 16.884 L 16.689 17.327 C 16.893 16.914 17 16.46 17 15.999 L 16 15.999 Z M 15.793 16.884 L 14.896 16.441 C 14.828 16.579 14.73 16.699 14.608 16.792 L 15.215 17.586 L 15.823 18.381 C 16.189 18.101 16.485 17.74 16.689 17.327 L 15.793 16.884 Z M 15.215 17.586 L 14.608 16.792 C 14.486 16.885 14.344 16.949 14.193 16.979 L 14.387 17.96 L 14.58 18.941 C 15.032 18.852 15.457 18.66 15.823 18.381 L 15.215 17.586 Z M 14.387 17.96 L 14.193 16.979 C 14.043 17.009 13.887 17.003 13.739 16.963 L 13.478 17.929 L 13.217 18.894 C 13.662 19.014 14.128 19.03 14.58 18.941 L 14.387 17.96 Z M 13.478 17.929 L 13.739 16.963 C 13.591 16.923 13.454 16.85 13.339 16.748 L 12.677 17.498 L 12.016 18.248 C 12.361 18.553 12.772 18.774 13.217 18.894 L 13.478 17.929 Z M 12.677 17.498 L 13.339 16.748 C 13.223 16.646 13.133 16.52 13.075 16.378 L 12.15 16.758 L 11.225 17.137 C 11.4 17.563 11.67 17.943 12.016 18.248 L 12.677 17.498 Z M 12.15 16.758 L 13.075 16.378 C 13.017 16.236 12.992 16.082 13.002 15.929 L 12.005 15.86 L 11.007 15.791 C 10.975 16.251 11.05 16.711 11.225 17.137 L 12.15 16.758 Z M 12.005 15.86 L 13.002 15.929 C 13.013 15.776 13.059 15.627 13.136 15.494 L 12.272 14.991 L 11.408 14.487 C 11.176 14.885 11.039 15.331 11.007 15.791 L 12.005 15.86 Z" fill="currentColor" fill-rule="nonzero"></path>
</svg>