<svg overflow="visible" xmlns="http://www.w3.org/2000/svg" width="16" height="12" viewBox="0 0 16 12" fill="none">
  <path d="M 0 -1 C -0.552 -1 -1 -0.552 -1 0 C -1 0.552 -0.552 1 0 1 L 0 -1 Z M 16 1 C 16.552 1 17 0.552 17 0 C 17 -0.552 16.552 -1 16 -1 L 16 1 Z M 6 5 C 5.448 5 5 5.448 5 6 C 5 6.552 5.448 7 6 7 L 6 5 Z M 16 7 C 16.552 7 17 6.552 17 6 C 17 5.448 16.552 5 16 5 L 16 7 Z M 12 11 C 11.448 11 11 11.448 11 12 C 11 12.552 11.448 13 12 13 L 12 11 Z M 16 13 C 16.552 13 17 12.552 17 12 C 17 11.448 16.552 11 16 11 L 16 13 Z M 0 1 L 16 1 L 16 -1 L 0 -1 L 0 1 Z M 6 7 L 16 7 L 16 5 L 6 5 L 6 7 Z M 12 13 L 16 13 L 16 11 L 12 11 L 12 13 Z" fill="currentColor" fill-rule="nonzero"></path>
</svg>