<svg overflow="visible" xmlns="http://www.w3.org/2000/svg" width="16" height="16" viewBox="0 0 16 16" fill="none">
  <path d="M 7 1 C 7.552 1 8 0.552 8 0 C 8 -0.552 7.552 -1 7 -1 L 7 1 Z M 0 0 L 0 -1 C -0.552 -1 -1 -0.552 -1 0 L 0 0 Z M 0 14 L -1 14 L 0 14 Z M 17 9 C 17 8.448 16.552 8 16 8 C 15.448 8 15 8.448 15 9 L 17 9 Z M 4.293 10.293 C 3.902 10.683 3.902 11.317 4.293 11.707 C 4.683 12.098 5.317 12.098 5.707 11.707 L 4.293 10.293 Z M 16 0 L 17 0 C 17 -0.552 16.552 -1 16 -1 L 16 0 Z M 11 -1 C 10.448 -1 10 -0.552 10 0 C 10 0.552 10.448 1 11 1 L 11 -1 Z M 15 5 C 15 5.552 15.448 6 16 6 C 16.552 6 17 5.552 17 5 L 15 5 Z M 7 -1 L 0 -1 L 0 1 L 7 1 L 7 -1 Z M -1 0 L -1 14 L 1 14 L 1 0 L -1 0 Z M -1 14 C -1 14.796 -0.684 15.559 -0.121 16.121 L 1.293 14.707 C 1.105 14.52 1 14.265 1 14 L -1 14 Z M -0.121 16.121 C 0.441 16.684 1.204 17 2 17 L 2 15 C 1.735 15 1.48 14.895 1.293 14.707 L -0.121 16.121 Z M 2 17 L 14 17 L 14 15 L 2 15 L 2 17 Z M 14 17 C 14.796 17 15.559 16.684 16.121 16.121 L 14.707 14.707 C 14.52 14.895 14.265 15 14 15 L 14 17 Z M 16.121 16.121 C 16.684 15.559 17 14.796 17 14 L 15 14 C 15 14.265 14.895 14.52 14.707 14.707 L 16.121 16.121 Z M 17 14 L 17 9 L 15 9 L 15 14 L 17 14 Z M 5.707 11.707 L 16.707 0.707 L 15.293 -0.707 L 4.293 10.293 L 5.707 11.707 Z M 11 1 L 16 1 L 16 -1 L 11 -1 L 11 1 Z M 15 0 L 15 5 L 17 5 L 17 0 L 15 0 Z" fill="currentColor" fill-rule="nonzero"></path>
</svg>