<svg overflow="visible" xmlns="http://www.w3.org/2000/svg" width="20.924" height="19.900" viewBox="0 0 20.924 19.900" fill="none">
  <path d="M 10.462 0 L 11.37 -0.419 C 11.207 -0.773 10.852 -1 10.462 -1 C 10.072 -1 9.717 -0.773 9.554 -0.419 L 10.462 0 Z M 13.566 6.728 L 12.658 7.147 C 12.804 7.463 13.103 7.68 13.448 7.721 L 13.566 6.728 Z M 20.924 7.601 L 21.603 8.335 C 21.889 8.07 21.996 7.663 21.875 7.292 C 21.755 6.921 21.429 6.654 21.042 6.608 L 20.924 7.601 Z M 15.484 12.631 L 14.805 11.897 C 14.55 12.133 14.435 12.485 14.503 12.826 L 15.484 12.631 Z M 16.928 19.899 L 16.44 20.772 C 16.78 20.962 17.2 20.937 17.516 20.708 C 17.831 20.479 17.985 20.087 17.909 19.704 L 16.928 19.899 Z M 10.462 16.28 L 10.95 15.407 C 10.647 15.238 10.277 15.238 9.973 15.407 L 10.462 16.28 Z M 3.996 19.9 L 3.015 19.705 C 2.939 20.088 3.093 20.48 3.408 20.709 C 3.724 20.938 4.144 20.963 4.485 20.773 L 3.996 19.9 Z M 5.44 12.632 L 6.421 12.827 C 6.489 12.486 6.374 12.134 6.119 11.898 L 5.44 12.632 Z M 0 7.6 L -0.118 6.607 C -0.505 6.653 -0.83 6.92 -0.951 7.291 C -1.072 7.662 -0.965 8.069 -0.679 8.334 L 0 7.6 Z M 7.359 6.727 L 7.477 7.72 C 7.822 7.679 8.121 7.462 8.267 7.146 L 7.359 6.727 Z M 10.462 0 L 9.554 0.419 L 12.658 7.147 L 13.566 6.728 L 14.474 6.309 L 11.37 -0.419 L 10.462 0 Z M 13.566 6.728 L 13.448 7.721 L 20.806 8.594 L 20.924 7.601 L 21.042 6.608 L 13.684 5.735 L 13.566 6.728 Z M 20.924 7.601 L 20.245 6.867 L 14.805 11.897 L 15.484 12.631 L 16.163 13.365 L 21.603 8.335 L 20.924 7.601 Z M 15.484 12.631 L 14.503 12.826 L 15.947 20.094 L 16.928 19.899 L 17.909 19.704 L 16.465 12.436 L 15.484 12.631 Z M 16.928 19.899 L 17.416 19.026 L 10.95 15.407 L 10.462 16.28 L 9.974 17.153 L 16.44 20.772 L 16.928 19.899 Z M 10.462 16.28 L 9.973 15.407 L 3.507 19.027 L 3.996 19.9 L 4.485 20.773 L 10.951 17.153 L 10.462 16.28 Z M 3.996 19.9 L 4.977 20.095 L 6.421 12.827 L 5.44 12.632 L 4.459 12.437 L 3.015 19.705 L 3.996 19.9 Z M 5.44 12.632 L 6.119 11.898 L 0.679 6.866 L 0 7.6 L -0.679 8.334 L 4.761 13.366 L 5.44 12.632 Z M 0 7.6 L 0.118 8.593 L 7.477 7.72 L 7.359 6.727 L 7.241 5.734 L -0.118 6.607 L 0 7.6 Z M 7.359 6.727 L 8.267 7.146 L 11.37 0.419 L 10.462 0 L 9.554 -0.419 L 6.451 6.308 L 7.359 6.727 Z" fill="currentColor" fill-rule="nonzero"></path>
</svg>