<svg overflow="visible" xmlns="http://www.w3.org/2000/svg" width="16" height="18" viewBox="0 0 16 18" fill="none">
  <path d="M 11 8 C 11 7.448 10.552 7 10 7 C 9.448 7 9 7.448 9 8 L 11 8 Z M 9 14 C 9 14.552 9.448 15 10 15 C 10.552 15 11 14.552 11 14 L 9 14 Z M 7 8 C 7 7.448 6.552 7 6 7 C 5.448 7 5 7.448 5 8 L 7 8 Z M 5 14 C 5 14.552 5.448 15 6 15 C 6.552 15 7 14.552 7 14 L 5 14 Z M 3 4 C 3 3.448 2.552 3 2 3 C 1.448 3 1 3.448 1 4 L 3 4 Z M 2 16 L 1 16 L 2 16 Z M 15 4 C 15 3.448 14.552 3 14 3 C 13.448 3 13 3.448 13 4 L 15 4 Z M 0 3 C -0.552 3 -1 3.448 -1 4 C -1 4.552 -0.552 5 0 5 L 0 3 Z M 16 5 C 16.552 5 17 4.552 17 4 C 17 3.448 16.552 3 16 3 L 16 5 Z M 2.106 3.553 C 1.859 4.047 2.059 4.647 2.553 4.894 C 3.047 5.141 3.647 4.941 3.894 4.447 L 2.106 3.553 Z M 5 0 L 5 -1 C 4.621 -1 4.275 -0.786 4.106 -0.447 L 5 0 Z M 11 0 L 11.894 -0.447 C 11.725 -0.786 11.379 -1 11 -1 L 11 0 Z M 12.106 4.447 C 12.353 4.941 12.953 5.141 13.447 4.894 C 13.941 4.647 14.141 4.047 13.894 3.553 L 12.106 4.447 Z M 10 8 L 9 8 L 9 14 L 10 14 L 11 14 L 11 8 L 10 8 Z M 6 8 L 5 8 L 5 14 L 6 14 L 7 14 L 7 8 L 6 8 Z M 2 4 L 1 4 L 1 16 L 2 16 L 3 16 L 3 4 L 2 4 Z M 2 16 L 1 16 C 1 16.796 1.316 17.559 1.879 18.121 L 2.586 17.414 L 3.293 16.707 C 3.105 16.52 3 16.265 3 16 L 2 16 Z M 2.586 17.414 L 1.879 18.121 C 2.441 18.684 3.204 19 4 19 L 4 18 L 4 17 C 3.735 17 3.48 16.895 3.293 16.707 L 2.586 17.414 Z M 4 18 L 4 19 L 12 19 L 12 18 L 12 17 L 4 17 L 4 18 Z M 12 18 L 12 19 C 12.796 19 13.559 18.684 14.121 18.121 L 13.414 17.414 L 12.707 16.707 C 12.52 16.895 12.265 17 12 17 L 12 18 Z M 13.414 17.414 L 14.121 18.121 C 14.684 17.559 15 16.796 15 16 L 14 16 L 13 16 C 13 16.265 12.895 16.52 12.707 16.707 L 13.414 17.414 Z M 14 16 L 15 16 L 15 4 L 14 4 L 13 4 L 13 16 L 14 16 Z M 0 4 L 0 5 L 16 5 L 16 4 L 16 3 L 0 3 L 0 4 Z M 3 4 L 3.894 4.447 L 5.894 0.447 L 5 0 L 4.106 -0.447 L 2.106 3.553 L 3 4 Z M 5 0 L 5 1 L 11 1 L 11 0 L 11 -1 L 5 -1 L 5 0 Z M 11 0 L 10.106 0.447 L 12.106 4.447 L 13 4 L 13.894 3.553 L 11.894 -0.447 L 11 0 Z" fill="currentColor" fill-rule="nonzero"></path>
</svg>