<svg overflow="visible" xmlns="http://www.w3.org/2000/svg" width="15.896" height="16" viewBox="0 0 15.896 16" fill="none">
  <path d="M 8.948 3 C 8.948 3.265 8.843 3.52 8.655 3.707 C 8.468 3.895 8.213 4 7.948 4 L 7.948 6 C 8.744 6 9.507 5.684 10.069 5.121 C 10.632 4.559 10.948 3.796 10.948 3 L 8.948 3 Z M 7.948 4 C 7.683 4 7.428 3.895 7.241 3.707 C 7.053 3.52 6.948 3.265 6.948 3 L 4.948 3 C 4.948 3.796 5.264 4.559 5.827 5.121 C 6.389 5.684 7.152 6 7.948 6 L 7.948 4 Z M 6.948 3 C 6.948 2.735 7.053 2.48 7.241 2.293 C 7.428 2.105 7.683 2 7.948 2 L 7.948 0 C 7.152 0 6.389 0.316 5.827 0.879 C 5.264 1.441 4.948 2.204 4.948 3 L 6.948 3 Z M 7.948 2 C 8.213 2 8.468 2.105 8.655 2.293 C 8.843 2.48 8.948 2.735 8.948 3 L 10.948 3 C 10.948 2.204 10.632 1.441 10.069 0.879 C 9.507 0.316 8.744 0 7.948 0 L 7.948 2 Z M 1.114 11.856 L 0.155 11.571 L 0 12.094 L 0.355 12.507 L 1.114 11.856 Z M 14.782 11.856 L 15.542 12.507 L 15.896 12.094 L 15.741 11.571 L 14.782 11.856 Z M 4.948 10 L 10.948 10 L 10.948 8 L 4.948 8 L 4.948 10 Z M 4.948 8 C 3.871 8 2.823 8.347 1.959 8.99 C 1.096 9.634 0.463 10.539 0.155 11.571 L 2.072 12.141 C 2.257 11.522 2.637 10.979 3.155 10.594 C 3.673 10.208 4.302 10 4.948 10 L 4.948 8 Z M 7.948 14 C 6.793 14.001 5.652 13.752 4.604 13.27 C 3.555 12.787 2.623 12.083 1.873 11.205 L 0.355 12.507 C 1.293 13.604 2.457 14.484 3.768 15.087 C 5.079 15.69 6.505 16.001 7.948 16 L 7.948 14 Z M 10.948 10 C 12.305 10 13.454 10.902 13.824 12.142 L 15.741 11.571 C 15.433 10.539 14.8 9.634 13.936 8.991 C 13.073 8.347 12.025 8 10.948 8 L 10.948 10 Z M 14.023 11.205 C 13.273 12.083 12.341 12.787 11.292 13.27 C 10.244 13.752 9.103 14.001 7.948 14 L 7.948 16 C 9.391 16.001 10.817 15.69 12.128 15.087 C 13.439 14.484 14.604 13.604 15.542 12.507 L 14.023 11.205 Z" fill="currentColor" fill-rule="nonzero"></path>
</svg>